<?xml version="1.0" encoding="UTF-8" standalone="no"?>
<!-- Created with Inkscape (http://www.inkscape.org/) -->

<svg
   xmlns:dc="http://purl.org/dc/elements/1.1/"
   xmlns:cc="http://creativecommons.org/ns#"
   xmlns:rdf="http://www.w3.org/1999/02/22-rdf-syntax-ns#"
   xmlns:svg="http://www.w3.org/2000/svg"
   xmlns="http://www.w3.org/2000/svg"
   xmlns:sodipodi="http://sodipodi.sourceforge.net/DTD/sodipodi-0.dtd"
   xmlns:inkscape="http://www.inkscape.org/namespaces/inkscape"
   width="210mm"
   height="297mm"
   viewBox="0 0 744.09448819 1052.3622047"
   id="svg2"
   version="1.1"
   inkscape:version="0.91 r13725"
   sodipodi:docname="icons.svg">
  <defs
     id="defs4" />
  <sodipodi:namedview
     id="base"
     pagecolor="#ffffff"
     bordercolor="#666666"
     borderopacity="1.0"
     inkscape:pageopacity="0.0"
     inkscape:pageshadow="2"
     inkscape:zoom="1"
     inkscape:cx="342.59562"
     inkscape:cy="450.80764"
     inkscape:document-units="px"
     inkscape:current-layer="layer1"
     showgrid="false"
     inkscape:window-width="1362"
     inkscape:window-height="723"
     inkscape:window-x="4"
     inkscape:window-y="1"
     inkscape:window-maximized="1" />
  <metadata
     id="metadata7">
    <rdf:RDF>
      <cc:Work
         rdf:about="">
        <dc:format>image/svg+xml</dc:format>
        <dc:type
           rdf:resource="http://purl.org/dc/dcmitype/StillImage" />
        <dc:title></dc:title>
      </cc:Work>
    </rdf:RDF>
  </metadata>
  <g
     inkscape:label="Ebene 1"
     inkscape:groupmode="layer"
     id="layer1">
    <g
       id="g3416"
       transform="translate(566.9462,353.42904)">
      <path
         id="path3404"
         d="m 88.635,45.697 c -3.662,0 -6.631,2.969 -6.631,6.631 l 0,15.216 c -0.285,-0.324 -0.617,-0.609 -1,-0.831 L 49.735,48.66 c -1.238,-0.715 -2.762,-0.715 -4,0 -1.237,0.714 -2,2.035 -2,3.464 l 0,36.104 c 0,1.43 0.763,2.75 2,3.465 0.619,0.356 1.311,0.535 2,0.535 0.691,0 1.381,-0.179 2,-0.535 L 81.004,73.64 c 0.383,-0.223 0.715,-0.508 1,-0.832 l 0,13.863 c 0,3.662 2.969,6.631 6.631,6.631 3.662,0 6.631,-2.969 6.631,-6.631 l 0,-34.343 c 0,-3.662 -2.969,-6.631 -6.631,-6.631 z"
         inkscape:connector-curvature="0"
         inkscape:export-xdpi="111.78"
         inkscape:export-ydpi="111.78"
         style="fill:#ffffff;stroke:#000000;stroke-opacity:1;opacity:0.5" />
      <text
         id="text3406"
         font-weight="bold"
         font-size="5px"
         y="154"
         x="0"
         style="font-weight:bold;font-size:5px;font-family:'Helvetica Neue', Helvetica, Arial-Unicode, Arial, Sans-serif;fill:#000000">Created by Nut Chanut</text>
      <text
         id="text3408"
         font-weight="bold"
         font-size="5px"
         y="159"
         x="0"
         style="font-weight:bold;font-size:5px;font-family:'Helvetica Neue', Helvetica, Arial-Unicode, Arial, Sans-serif;fill:#000000">from the Noun Project</text>
    </g>
    <g
       id="g3435"
       transform="translate(394.39946,333.00798)">
      <path
         id="path3423"
         d="m 87.479,46.133 -35.958,0 c -2.971,0 -5.388,2.417 -5.388,5.388 l 0,35.958 c 0,2.971 2.417,5.388 5.388,5.388 l 35.958,0 c 2.971,0 5.388,-2.417 5.388,-5.388 l 0,-35.958 C 92.866,48.55 90.449,46.133 87.479,46.133 Z"
         inkscape:connector-curvature="0" />
      <text
         id="text3425"
         font-weight="bold"
         font-size="5px"
         y="154"
         x="0"
         style="font-weight:bold;font-size:5px;font-family:'Helvetica Neue', Helvetica, Arial-Unicode, Arial, Sans-serif;fill:#000000">Created by Nut Chanut</text>
      <text
         id="text3427"
         font-weight="bold"
         font-size="5px"
         y="159"
         x="0"
         style="font-weight:bold;font-size:5px;font-family:'Helvetica Neue', Helvetica, Arial-Unicode, Arial, Sans-serif;fill:#000000">from the Noun Project</text>
    </g>
    <g
       id="g3454"
       transform="translate(446.6932,683.22957)">
      <path
         id="path3442"
         d="m 60.302572,71.474531 c 0.167246,-0.166653 0.307211,-0.349913 0.429977,-0.540882 L 73.54824,58.117958 c 1.249603,-1.250789 1.250789,-3.278502 0,-4.529884 -1.250788,-1.249602 -3.277908,-1.250788 -4.529883,0 L 57.982474,64.625143 46.887878,53.532326 c -1.250789,-1.250196 -3.277909,-1.250789 -4.529291,0 -0.624504,0.626284 -0.938239,1.445316 -0.937053,2.264348 -0.0012,0.819626 0.312549,1.639251 0.938239,2.263163 l 12.871441,12.873219 c 0.122766,0.191562 0.263917,0.374229 0.432349,0.541475 0.639332,0.639331 1.480308,0.947136 2.318911,0.932309 0.837418,0.01542 1.680766,-0.292978 2.320098,-0.932309 z"
         inkscape:connector-curvature="0"
         inkscape:export-xdpi="111.78"
         inkscape:export-ydpi="111.78"
         style="opacity:0.5;fill:#ffffff;stroke:#000000;stroke-width:0.59307194;stroke-opacity:1" />
      <text
         id="text3444"
         font-weight="bold"
         font-size="5px"
         y="154"
         x="0"
         style="font-weight:bold;font-size:5px;font-family:'Helvetica Neue', Helvetica, Arial-Unicode, Arial, Sans-serif;fill:#000000">Created by Nut Chanut</text>
      <text
         id="text3446"
         font-weight="bold"
         font-size="5px"
         y="159"
         x="0"
         style="font-weight:bold;font-size:5px;font-family:'Helvetica Neue', Helvetica, Arial-Unicode, Arial, Sans-serif;fill:#000000">from the Noun Project</text>
    </g>
    <g
       id="g3475"
       transform="translate(232.90125,622.12961)">
      <path
         id="path3461"
         d="m 63.688,86.673 c 0,3.662 -2.969,6.631 -6.631,6.631 l 0,0 c -3.662,0 -6.631,-2.969 -6.631,-6.631 l 0,-34.345 c 0,-3.662 2.969,-6.631 6.631,-6.631 l 0,0 c 3.662,0 6.631,2.969 6.631,6.631 l 0,34.345 z"
         inkscape:connector-curvature="0"
         inkscape:export-xdpi="111.78"
         inkscape:export-ydpi="111.78"
         style="fill:#ffffff;stroke:#000000;stroke-opacity:1;opacity:0.5" />
      <path
         id="path3463"
         d="m 88.574,86.673 c 0,3.662 -2.969,6.631 -6.631,6.631 l 0,0 c -3.662,0 -6.631,-2.969 -6.631,-6.631 l 0,-34.345 c 0,-3.662 2.969,-6.631 6.631,-6.631 l 0,0 c 3.662,0 6.631,2.969 6.631,6.631 l 0,34.345 z"
         inkscape:connector-curvature="0"
         inkscape:export-xdpi="111.78"
         inkscape:export-ydpi="111.78"
         style="fill:#ffffff;stroke:#000000;stroke-opacity:1;opacity:0.5" />
      <text
         id="text3465"
         font-weight="bold"
         font-size="5px"
         y="154"
         x="0"
         style="font-weight:bold;font-size:5px;font-family:'Helvetica Neue', Helvetica, Arial-Unicode, Arial, Sans-serif;fill:#000000">Created by Nut Chanut</text>
      <text
         id="text3467"
         font-weight="bold"
         font-size="5px"
         y="159"
         x="0"
         style="font-weight:bold;font-size:5px;font-family:'Helvetica Neue', Helvetica, Arial-Unicode, Arial, Sans-serif;fill:#000000">from the Noun Project</text>
    </g>
    <g
       id="g3495"
       transform="translate(430.27845,134.23597)">
      <path
         id="path3483"
         d="M 92.361,68.934 56.263,48.094 c -0.917,-0.529 -2.044,-0.529 -2.96,0 -0.916,0.528 -1.48,1.505 -1.48,2.563 l 0,41.684 c 0,1.058 0.564,2.035 1.48,2.563 0.458,0.268 0.969,0.397 1.48,0.397 0.511,0 1.022,-0.133 1.48,-0.397 l 36.098,-20.84 c 0.918,-0.529 1.479,-1.506 1.479,-2.564 0,-1.058 -0.563,-2.036 -1.479,-2.566 z"
         inkscape:connector-curvature="0"
         inkscape:export-xdpi="118.51039"
         inkscape:export-ydpi="118.51039"
         style="fill:#ffffff;stroke:#000000;stroke-opacity:1;opacity:0.5" />
      <text
         id="text3485"
         font-weight="bold"
         font-size="5px"
         y="154"
         x="0"
         style="font-weight:bold;font-size:5px;font-family:'Helvetica Neue', Helvetica, Arial-Unicode, Arial, Sans-serif;fill:#000000">Created by Nut Chanut</text>
      <text
         id="text3487"
         font-weight="bold"
         font-size="5px"
         y="159"
         x="0"
         style="font-weight:bold;font-size:5px;font-family:'Helvetica Neue', Helvetica, Arial-Unicode, Arial, Sans-serif;fill:#000000">from the Noun Project</text>
    </g>
    <g
       id="g3514"
       transform="translate(187.22734,328.18587)">
      <path
         id="path3502"
         d="m 50.168,47.696 c 3.662,0 6.631,2.969 6.631,6.631 l 0,15.216 c 0.284,-0.324 0.616,-0.609 1,-0.831 l 31.27,-18.053 c 1.238,-0.715 2.762,-0.715 4,0 1.236,0.714 2,2.035 2,3.464 l 0,36.105 c 0,1.429 -0.764,2.75 -2,3.463 -0.619,0.357 -1.311,0.537 -2,0.537 -0.69,0 -1.381,-0.18 -2,-0.537 L 57.799,75.638 c -0.384,-0.221 -0.716,-0.506 -1,-0.83 l 0,13.863 c 0,3.662 -2.969,6.631 -6.631,6.631 -3.662,0 -6.631,-2.969 -6.631,-6.631 l 0,-34.344 c 0,-3.662 2.969,-6.631 6.631,-6.631 z"
         inkscape:connector-curvature="0"
         inkscape:export-xdpi="111.78"
         inkscape:export-ydpi="111.78"
         style="fill:#ffffff;stroke:#000000;stroke-opacity:1;opacity:0.5" />
      <text
         id="text3504"
         font-weight="bold"
         font-size="5px"
         y="154"
         x="0"
         style="font-weight:bold;font-size:5px;font-family:'Helvetica Neue', Helvetica, Arial-Unicode, Arial, Sans-serif;fill:#000000">Created by Nut Chanut</text>
      <text
         id="text3506"
         font-weight="bold"
         font-size="5px"
         y="159"
         x="0"
         style="font-weight:bold;font-size:5px;font-family:'Helvetica Neue', Helvetica, Arial-Unicode, Arial, Sans-serif;fill:#000000">from the Noun Project</text>
    </g>
  </g>
</svg>
