<svg xmlns="http://www.w3.org/2000/svg" xmlns:xlink="http://www.w3.org/1999/xlink" version="1.1" x="0px" y="0px" viewBox="0 0 139 173.75" enable-background="new 0 0 139 139" xml:space="preserve"><path d="M68.004,103.014c15.487,0,28.551-10.563,32.375-24.859h9.113L95.548,54.001L81.604,78.152h8.006  c-3.44,8.563-11.826,14.628-21.605,14.628c-12.837,0-23.28-10.443-23.28-23.28c0-12.836,10.443-23.28,23.28-23.28  c6.604,0,12.566,2.768,16.809,7.196l5.258-9.108c-5.898-5.176-13.619-8.32-22.065-8.32c-18.48,0-33.514,15.032-33.514,33.513  C34.491,87.982,49.523,103.014,68.004,103.014z"/><text x="0" y="154" fill="#000000" font-size="5px" font-weight="bold" font-family="'Helvetica Neue', Helvetica, Arial-Unicode, Arial, Sans-serif">Created by Nut Chanut</text><text x="0" y="159" fill="#000000" font-size="5px" font-weight="bold" font-family="'Helvetica Neue', Helvetica, Arial-Unicode, Arial, Sans-serif">from the Noun Project</text></svg>