<svg xmlns="http://www.w3.org/2000/svg" xmlns:xlink="http://www.w3.org/1999/xlink" version="1.1" x="0px" y="0px" viewBox="0 0 100 125" enable-background="new 0 0 100 100" xml:space="preserve"><path d="M62.333,34.536c-1.167,0.994-18.325,25.322-29.562,41.418c-1.124,1.563-2.776,2.445-4.54,2.445H10.827  C7.614,78.399,5,75.457,5,71.837c0-3.619,2.614-6.568,5.826-6.568c0.098,0.006,6.03,0.389,10.384,0.389  c3.53,0,4.157-0.257,4.247-0.315c1.325-1.02,18.418-25.338,29.574-41.422c1.105-1.553,2.757-2.438,4.529-2.438h14.489  c0.16-3.414,0.462-6.077,0.962-6.434l0.501-0.145c2.073,0,19.45,10.984,19.485,13.221c0.006,0.398-0.26,0.844-0.893,1.482  C90.949,32.8,77.779,41.364,75.521,41.364l0,0l-0.427-0.09c-0.401-0.205-0.745-0.639-0.985-3.94c-0.055-0.716-0.1-1.701-0.135-2.827  c-2.054-0.09-5.189-0.205-7.728-0.205C62.99,34.302,62.414,34.497,62.333,34.536z M10.846,34.619c0.005,0,6.179-0.212,10.596-0.212  c3.35,0,3.976,0.122,4.046,0.142c0.767,0.487,5.16,6.842,8.908,12.569l0.483,0.735l7.504-10.487l-9.617-13.455  c-1.119-1.544-2.771-2.43-4.531-2.43H10.827C7.614,21.481,5,24.428,5,28.047C5,31.673,7.614,34.619,10.846,34.619z M94.999,71.856  c0.006,0.392-0.26,0.838-0.893,1.482c-3.164,3.19-16.327,11.758-18.586,11.758l0,0l-0.427-0.096  c-0.401-0.202-0.745-0.636-0.985-3.935c-0.052-0.684-0.097-1.604-0.129-2.667H59.562c-1.772,0-3.424-0.882-4.527-2.441  l-9.621-13.439l7.51-10.5l0.477,0.744c3.744,5.821,8.099,12.111,8.901,12.57c0.075,0.028,0.649,0.208,3.93,0.208  c2.621,0,5.824-0.112,7.813-0.192c0.16-3.476,0.462-6.206,0.969-6.572l0.501-0.147C77.587,58.629,94.964,69.616,94.999,71.856z"/><text x="0" y="115" fill="#000000" font-size="5px" font-weight="bold" font-family="'Helvetica Neue', Helvetica, Arial-Unicode, Arial, Sans-serif">Created by Cris Dobbins</text><text x="0" y="120" fill="#000000" font-size="5px" font-weight="bold" font-family="'Helvetica Neue', Helvetica, Arial-Unicode, Arial, Sans-serif">from the Noun Project</text></svg>